<svg width="152" height="41" viewBox="0 0 152 41" fill="none" xmlns="http://www.w3.org/2000/svg">
<path d="M48.872 30V13.08H51.968V20.136H60.632V13.08H63.728V30H60.632V22.704H51.968V30H48.872ZM73.0739 30.24C71.0419 30.24 69.4499 29.68 68.2979 28.56C67.1459 27.44 66.5699 25.904 66.5699 23.952C66.5699 22.688 66.8179 21.584 67.3139 20.64C67.8099 19.696 68.4979 18.96 69.3779 18.432C70.2739 17.904 71.3139 17.64 72.4979 17.64C73.6659 17.64 74.6419 17.888 75.4259 18.384C76.2099 18.88 76.8019 19.576 77.2019 20.472C77.6179 21.368 77.8259 22.416 77.8259 23.616V24.408H68.9939V22.824H75.6899L75.2819 23.16C75.2819 22.04 75.0419 21.184 74.5619 20.592C74.0979 20 73.4179 19.704 72.5219 19.704C71.5299 19.704 70.7619 20.056 70.2179 20.76C69.6899 21.464 69.4259 22.448 69.4259 23.712V24.024C69.4259 25.336 69.7459 26.32 70.3859 26.976C71.0419 27.616 71.9619 27.936 73.1459 27.936C73.8339 27.936 74.4739 27.848 75.0659 27.672C75.6739 27.48 76.2499 27.176 76.7939 26.76L77.6819 28.776C77.1059 29.24 76.4179 29.6 75.6179 29.856C74.8179 30.112 73.9699 30.24 73.0739 30.24ZM85.0464 30.24C83.9904 30.24 83.0624 29.992 82.2624 29.496C81.4624 28.984 80.8384 28.256 80.3904 27.312C79.9424 26.368 79.7184 25.24 79.7184 23.928C79.7184 22.616 79.9424 21.496 80.3904 20.568C80.8384 19.624 81.4624 18.904 82.2624 18.408C83.0624 17.896 83.9904 17.64 85.0464 17.64C86.0704 17.64 86.9664 17.896 87.7344 18.408C88.5184 18.904 89.0384 19.576 89.2944 20.424H89.0304L89.2944 17.88H92.1744C92.1264 18.376 92.0784 18.88 92.0304 19.392C91.9984 19.904 91.9824 20.408 91.9824 20.904V30H89.0064L88.9824 27.504H89.2704C89.0144 28.336 88.4944 29 87.7104 29.496C86.9264 29.992 86.0384 30.24 85.0464 30.24ZM85.8864 27.936C86.8304 27.936 87.5904 27.608 88.1664 26.952C88.7424 26.28 89.0304 25.272 89.0304 23.928C89.0304 22.584 88.7424 21.584 88.1664 20.928C87.5904 20.272 86.8304 19.944 85.8864 19.944C84.9424 19.944 84.1824 20.272 83.6064 20.928C83.0304 21.584 82.7424 22.584 82.7424 23.928C82.7424 25.272 83.0224 26.28 83.5824 26.952C84.1584 27.608 84.9264 27.936 85.8864 27.936ZM95.2492 30V12.336H98.2492V30H95.2492ZM106.691 30.24C105.251 30.24 104.163 29.864 103.427 29.112C102.691 28.36 102.323 27.232 102.323 25.728V20.136H99.995V17.88H102.323V14.784L105.323 14.016V17.88H108.563V20.136H105.323V25.536C105.323 26.368 105.483 26.952 105.803 27.288C106.123 27.624 106.563 27.792 107.123 27.792C107.427 27.792 107.683 27.768 107.891 27.72C108.115 27.672 108.331 27.608 108.539 27.528V29.904C108.267 30.016 107.963 30.096 107.627 30.144C107.307 30.208 106.995 30.24 106.691 30.24ZM110.601 30V12.336H113.601V20.304H113.265C113.633 19.44 114.201 18.784 114.969 18.336C115.737 17.872 116.617 17.64 117.609 17.64C119.049 17.64 120.121 18.048 120.825 18.864C121.529 19.664 121.881 20.888 121.881 22.536V30H118.881V22.68C118.881 21.736 118.697 21.056 118.329 20.64C117.977 20.208 117.409 19.992 116.625 19.992C115.713 19.992 114.977 20.28 114.417 20.856C113.873 21.416 113.601 22.168 113.601 23.112V30H110.601ZM125.062 30V17.88H128.062V30H125.062ZM124.894 15.6V12.672H128.23V15.6H124.894ZM132.136 30V20.136H129.808V17.88H132.976L132.136 18.648V16.8C132.136 15.296 132.52 14.16 133.288 13.392C134.072 12.624 135.216 12.24 136.72 12.24C137.072 12.24 137.44 12.264 137.824 12.312C138.224 12.36 138.568 12.448 138.856 12.576V14.928C138.648 14.848 138.4 14.784 138.112 14.736C137.824 14.688 137.544 14.664 137.272 14.664C136.856 14.664 136.48 14.744 136.144 14.904C135.824 15.064 135.568 15.312 135.376 15.648C135.2 15.968 135.112 16.4 135.112 16.944V18.408L134.68 17.88H138.304V20.136H135.136V30H132.136ZM139.681 35.448L138.985 33.072C139.737 32.912 140.369 32.728 140.881 32.52C141.393 32.312 141.817 32.04 142.153 31.704C142.489 31.368 142.769 30.936 142.993 30.408L143.593 28.992L143.521 30.168L138.241 17.88H141.433L145.225 27.336H144.529L148.345 17.88H151.369L145.849 30.672C145.481 31.536 145.081 32.248 144.649 32.808C144.217 33.384 143.753 33.84 143.257 34.176C142.761 34.528 142.217 34.8 141.625 34.992C141.033 35.184 140.385 35.336 139.681 35.448Z" fill="#233348"/>
<circle cx="20.5" cy="20.5" r="20.5" fill="#458FF6"/>
<path d="M12.028 30V11.67H15.382V19.314H24.768V11.67H28.122V30H24.768V22.096H15.382V30H12.028Z" fill="white"/>
</svg>
